<?xml version="1.0" encoding="UTF-8" standalone="no"?>
<svg
   xmlns:dc="http://purl.org/dc/elements/1.1/"
   xmlns:cc="http://creativecommons.org/ns#"
   xmlns:rdf="http://www.w3.org/1999/02/22-rdf-syntax-ns#"
   xmlns:svg="http://www.w3.org/2000/svg"
   xmlns="http://www.w3.org/2000/svg"
   xmlns:sodipodi="http://sodipodi.sourceforge.net/DTD/sodipodi-0.dtd"
   xmlns:inkscape="http://www.inkscape.org/namespaces/inkscape"
   width="27.990984"
   height="28"
   viewBox="0 0 27.990984 28"
   version="1.1"
   id="svg2"
   inkscape:version="0.91 r13725"
   sodipodi:docname="blog-icon.svg">
  <title
     id="title3457">Java Visites</title>
  <sodipodi:namedview
     pagecolor="#ffffff"
     bordercolor="#666666"
     borderopacity="1"
     objecttolerance="10"
     gridtolerance="10"
     guidetolerance="10"
     inkscape:pageopacity="0"
     inkscape:pageshadow="2"
     inkscape:window-width="1366"
     inkscape:window-height="705"
     id="namedview14"
     showgrid="false"
     inkscape:zoom="12.978238"
     inkscape:cx="19.742054"
     inkscape:cy="9.3226878"
     inkscape:window-x="0"
     inkscape:window-y="30"
     inkscape:window-maximized="1"
     inkscape:current-layer="svg2"
     fit-margin-top="0"
     fit-margin-left="0"
     fit-margin-right="0"
     fit-margin-bottom="0" />
  <metadata
     id="metadata16">
    <rdf:RDF>
      <cc:Work
         rdf:about="">
        <dc:format>image/svg+xml</dc:format>
        <dc:type
           rdf:resource="http://purl.org/dc/dcmitype/StillImage" />
        <dc:title>Java Visites</dc:title>
        <dc:source>https://javavisites.com</dc:source>
        <dc:subject>
          <rdf:Bag>
            <rdf:li>Java Visites</rdf:li>
          </rdf:Bag>
        </dc:subject>
        <cc:license
           rdf:resource="http://creativecommons.org/licenses/by-nc/3.0/" />
      </cc:Work>
      <cc:License
         rdf:about="http://creativecommons.org/licenses/by-nc/3.0/">
        <cc:permits
           rdf:resource="http://creativecommons.org/ns#Reproduction" />
        <cc:permits
           rdf:resource="http://creativecommons.org/ns#Distribution" />
        <cc:requires
           rdf:resource="http://creativecommons.org/ns#Notice" />
        <cc:requires
           rdf:resource="http://creativecommons.org/ns#Attribution" />
        <cc:prohibits
           rdf:resource="http://creativecommons.org/ns#CommercialUse" />
        <cc:permits
           rdf:resource="http://creativecommons.org/ns#DerivativeWorks" />
      </cc:License>
    </rdf:RDF>
  </metadata>
  <!-- Generator: Sketch 3.6.1 (26313) - http://www.bohemiancoding.com/sketch -->
  <desc
     id="desc6">Created with Sketch.</desc>
  <defs
     id="defs8" />
  <path
     inkscape:connector-curvature="0"
     id="path3449"
     d="M 12.56706,27.958701 C 10.888831,27.80286 9.2822046,27.358405 7.8256764,26.647056 6.3967896,25.949204 5.2884551,25.146816 4.0690609,23.927422 2.6995574,22.557919 1.7419954,21.164434 1.0501876,19.534231 0.7793606,18.896045 0.7797406,18.904968 1.0174702,18.76565 1.2506204,18.629014 1.4876051,18.36767 1.6127235,18.109211 2.0695085,17.165618 1.4351035,16.059736 0.3695834,15.942194 L 0.0989784,15.912342 0.0662998,15.714785 C -6.0670175e-4,15.3103 -0.0242241,13.366289 0.0299602,12.723609 0.2429333,10.19755 1.0720536,7.8903719 2.4653632,5.9466573 3.3769677,4.674938 4.6661851,3.3857207 5.9379039,2.4741164 6.6103757,1.9920692 8.0341014,1.1795568 8.0966674,1.2421221 c 0.01223,0.01223 -0.05578,0.1373552 -0.151124,0.2780552 C 7.2766318,2.5072508 7.141359,3.627864 7.5567635,4.7408778 c 0.3558379,0.9534126 1.1030369,1.6688937 2.1246691,2.0344798 0.3645554,0.1304549 0.4153214,0.1371366 1.0417564,0.1371366 0.751704,0 1.05366,-0.069066 1.646314,-0.3765626 1.051122,-0.5453698 1.768591,-1.6474493 1.832956,-2.8155416 0.08364,-1.5178692 -0.695161,-2.78135556 -2.118317,-3.43664906 -0.263125,-0.1211565 -0.263267,-0.1213246 -0.131709,-0.1563518 0.456129,-0.1214381 2.444559,-0.1701569 3.402383,-0.083364 3.284985,0.2976705 6.0504,1.57592246 8.445219,3.90361376 1.002995,0.9748815 1.883503,2.116475 2.532311,3.2831808 0.143718,0.2584364 0.261305,0.4840477 0.261305,0.5013593 0,0.017311 -0.117987,0.084424 -0.262197,0.1491417 -0.31332,0.1406097 -0.663231,0.4901472 -0.797277,0.796427 -0.294199,0.6722151 -0.039,1.5264133 0.579395,1.9393633 0.397358,0.265344 0.797245,0.320956 1.429607,0.198812 l 0.137342,-0.02653 0.07331,0.398889 c 0.155375,0.84547 0.206845,1.380563 0.231356,2.405243 0.04791,2.002531 -0.199498,3.640621 -0.803034,5.317091 -0.248209,0.689458 -0.795346,1.817066 -1.166001,2.40304 -0.386626,0.611221 -0.4247,0.660566 -0.471784,0.61143 -0.0222,-0.02316 -0.190343,-0.507593 -0.373661,-1.07651 -0.183319,-0.568918 -0.360728,-1.071898 -0.394243,-1.117733 -0.05828,-0.07971 -0.09099,-0.08104 -0.749999,-0.03081 -0.378983,0.02888 -0.740243,0.07748 -0.802798,0.108 -0.07943,0.03874 -0.337541,0.426276 -0.855668,1.284719 -0.898464,1.488596 -0.993402,1.669085 -0.917792,1.744849 0.0632,0.06333 0.914207,0.10241 1.222678,0.05616 0.183266,-0.02747 0.19986,-0.04225 0.312974,-0.278435 0.117038,-0.244384 0.123863,-0.25 0.338034,-0.278493 0.364622,-0.04851 0.665576,-0.04085 0.712151,0.01811 0.02384,0.03018 0.05459,0.14309 0.06831,0.250895 0.03237,0.254212 0.113632,0.308853 0.459238,0.308853 l 0.27996,0 -0.100585,0.141264 c -0.133089,0.186899 -1.249863,1.333681 -1.409453,1.447319 -0.111693,0.07953 -0.132959,0.08204 -0.199489,0.02344 -0.04095,-0.03608 -0.197942,-0.12737 -0.348855,-0.202859 -0.412284,-0.206253 -0.367932,-0.297789 0.131279,-0.270919 0.190645,0.0102 0.211914,0.0012 0.253552,-0.108345 0.100715,-0.264917 -0.04312,-0.358419 -0.473425,-0.307742 -0.611854,0.07206 -0.976934,0.254706 -1.044114,0.522368 -0.05516,0.219776 0.01164,0.331267 0.311024,0.518968 0.274097,0.171859 0.338392,0.261036 0.234499,0.325246 -0.0788,0.0487 -0.370033,0.03545 -0.593012,-0.02699 -0.20049,-0.05614 -0.20762,-0.05472 -0.298299,0.059 -0.09193,0.115299 -0.09349,0.115572 -0.149252,0.02627 -0.05213,-0.08349 -0.09142,-0.08918 -0.524567,-0.07596 -0.389165,0.01193 -0.470272,0.0032 -0.480429,-0.05157 -0.02499,-0.134698 0.0644,-0.180443 0.423337,-0.216626 0.198999,-0.02006 0.377861,-0.05361 0.39747,-0.07455 0.01961,-0.02095 0.04848,-0.09913 0.06417,-0.173766 0.04157,-0.197732 -0.03005,-0.234769 -0.382717,-0.197911 -0.321366,0.03358 -0.338988,0.02903 -0.338988,-0.08783 0,-0.09369 0.06249,-0.115558 0.480108,-0.167989 0.329142,-0.04133 0.396053,-0.08349 0.397254,-0.250319 0.0013,-0.174728 -0.07429,-0.188187 -0.679804,-0.121091 -0.313897,0.03477 -0.60853,0.07876 -0.654739,0.09771 -0.07963,0.03269 -0.177217,0.26192 -0.642415,1.509176 -0.184893,0.49572 -0.208868,0.483818 0.918611,0.456064 0.497949,-0.01221 0.954753,-0.02404 1.015117,-0.02617 0.187106,-0.0066 0.482919,0.05068 0.482919,0.09356 0,0.148362 -1.809744,1.086176 -2.743857,1.421871 -1.060598,0.381154 -2.329423,0.655789 -3.534086,0.76495 -0.58234,0.05276 -2.208244,0.05131 -2.787759,-0.0024 z m 0.345339,-2.333109 c 0.136164,-0.123648 0.801027,-1.83125 0.757336,-1.94511 -0.02536,-0.0661 -0.06971,-0.07203 -0.346109,-0.04636 -0.17436,0.01621 -0.340978,0.05357 -0.370266,0.08304 -0.02928,0.02947 -0.124036,0.249367 -0.210562,0.488665 -0.233272,0.645176 -0.250475,0.650244 -0.219252,0.06458 0.02361,-0.44287 0.01796,-0.513612 -0.04292,-0.536972 -0.103085,-0.03956 -0.586853,0.01964 -0.635049,0.07771 -0.04492,0.05413 -0.134138,1.095672 -0.134425,1.569319 -1.13e-4,0.193209 0.01848,0.300204 0.0547,0.314822 0.03017,0.01221 0.276027,0.02371 0.546323,0.02561 0.450766,0.0032 0.500449,-0.0047 0.600221,-0.09531 z m 1.486286,0.01884 c 0.02908,-0.02908 0.135244,-0.458533 0.235908,-0.954346 0.210669,-1.037553 0.209397,-1.046101 -0.148852,-1.000658 -0.113589,0.01441 -0.24002,0.05835 -0.28097,0.09767 -0.08751,0.08399 -0.781627,1.68799 -0.781627,1.806212 0,0.0444 0.03457,0.09087 0.07683,0.103272 0.144864,0.04249 0.844682,0.0019 0.898714,-0.05215 z m 1.811669,-0.04512 c 0.266926,-0.120358 0.409672,-0.246806 0.489125,-0.433271 0.149934,-0.351882 0.02299,-0.600108 -0.42131,-0.823856 -0.446519,-0.224863 -0.415686,-0.316877 0.09694,-0.289285 0.190644,0.0102 0.211915,0.0012 0.253553,-0.108344 0.100686,-0.264808 -0.04283,-0.358203 -0.473425,-0.308092 -0.572862,0.06667 -0.920252,0.222935 -1.017494,0.457692 -0.10287,0.248361 -0.05062,0.361774 0.260985,0.566537 0.507843,0.333707 0.31989,0.464763 -0.423967,0.295624 -0.165424,-0.03762 -0.240162,0.05031 -0.330153,0.388354 -0.05478,0.205781 -0.05302,0.215937 0.05206,0.301026 0.09964,0.08068 0.158452,0.08656 0.701742,0.07021 0.49571,-0.01493 0.628914,-0.03405 0.811955,-0.116593 z m 1.434043,0.04814 c 0.02742,-0.02742 0.116909,-0.371101 0.198865,-0.763733 0.08195,-0.392632 0.15515,-0.720018 0.162657,-0.727526 0.0075,-0.0075 0.09071,0.0032 0.184908,0.02382 0.112584,0.02463 0.166575,0.05871 0.157588,0.09947 -0.0075,0.0341 -0.12224,0.347901 -0.254935,0.697335 -0.224661,0.591615 -0.235983,0.639198 -0.164521,0.691452 0.106304,0.07772 0.763422,0.07519 0.870847,-0.0033 0.0633,-0.04628 0.103229,-0.202832 0.180018,-0.705533 0.132528,-0.867676 0.124452,-0.84316 0.288468,-0.875963 0.196515,-0.0393 0.257188,-0.103976 0.257188,-0.274128 0,-0.146279 -0.0026,-0.148281 -0.195835,-0.148281 -0.40952,0 -1.099215,0.09673 -1.176094,0.164945 -0.04249,0.03771 -0.07683,0.04692 -0.07683,0.02061 0,-0.02617 -0.03055,-0.07811 -0.06787,-0.115443 -0.08567,-0.08567 -0.445571,-0.04939 -0.555356,0.05598 -0.08751,0.08399 -0.781626,1.687989 -0.781626,1.80621 0,0.0444 0.03457,0.09089 0.07683,0.103272 0.138779,0.04071 0.844576,0.002 0.8957,-0.04913 z m -6.73519,-1.002274 c 0.124367,-0.08044 0.275,-0.372312 0.274786,-0.532431 -3.94e-4,-0.290937 -0.30019,-0.539545 -0.650644,-0.539545 -0.215544,0 -0.417792,0.178576 -0.495322,0.437345 -0.06486,0.216487 -0.02288,0.379715 0.135796,0.527936 0.226705,0.211774 0.509482,0.252801 0.735385,0.106692 z M 8.2728114,23.263087 c 0.294742,-0.111362 0.578084,-0.520412 0.612432,-0.884146 0.02905,-0.30767 -0.07043,-0.487567 -0.394117,-0.712675 -0.403968,-0.280939 -0.838367,-0.270795 -1.1113769,0.02597 -0.2528939,0.274887 -0.3840153,0.748079 -0.2781283,1.003713 0.074196,0.179126 0.4018222,0.461621 0.6285352,0.541954 0.224011,0.07938 0.380076,0.08662 0.542655,0.02519 z M 15.401059,22.91212 c 0.85879,0.01408 0.900249,0.0022 1.044655,-0.299315 0.115687,-0.241574 0.122972,-0.247538 0.336832,-0.275989 0.364622,-0.04851 0.665576,-0.04085 0.712152,0.01811 0.02384,0.03018 0.05459,0.14309 0.06831,0.250895 0.01408,0.110026 0.05775,0.219984 0.09968,0.25065 0.09087,0.06644 3.115939,0.08032 3.287535,0.01509 0.05897,-0.02242 0.140244,-0.09117 0.180621,-0.15279 0.12599,-0.192277 1.166128,-2.930757 1.139516,-3.000108 -0.03737,-0.09738 -0.966468,-0.04003 -1.113886,0.06876 -0.0743,0.05483 -0.187573,0.30832 -0.405443,0.907385 -0.166281,0.457211 -0.322375,0.851337 -0.346877,0.87584 -0.06107,0.06107 -0.05558,-0.246946 0.01792,-1.004702 0.07573,-0.780657 0.07288,-0.787333 -0.318953,-0.749181 -0.469209,0.04568 -0.646946,0.07403 -0.710536,0.113345 -0.04374,0.02704 -0.08005,0.315199 -0.136379,1.082672 -0.04222,0.575205 -0.07794,1.101324 -0.07936,1.16915 -0.0014,0.06943 -0.02151,0.111621 -0.04591,0.09653 -0.02384,-0.01473 -0.222745,-0.57701 -0.442026,-1.249515 -0.219282,-0.672505 -0.424802,-1.258439 -0.456711,-1.302077 -0.05459,-0.07465 -0.09873,-0.07624 -0.747077,-0.02681 -0.378984,0.02888 -0.739943,0.07748 -0.802132,0.108 -0.07604,0.0373 -0.285066,0.340493 -0.638293,0.925833 -0.288872,0.4787 -0.540177,0.85406 -0.558454,0.834132 -0.01828,-0.01993 -0.01697,-0.31281 0.0029,-0.650853 0.07356,-1.251157 0.06604,-1.279351 -0.327284,-1.228987 -0.332581,0.04259 -0.536578,0.102224 -0.596447,0.174353 -0.02931,0.03532 -0.129927,0.417912 -0.223588,0.850192 -0.09366,0.432281 -0.19015,0.838217 -0.214432,0.90208 -0.05364,0.141093 -0.225936,0.213698 -0.420487,0.177199 -0.221017,-0.04147 -0.320035,0.01279 -0.432328,0.236927 -0.16539,0.330096 -0.214702,0.517794 -0.16194,0.616382 0.09951,0.185929 0.82895,0.331903 1.40805,0.281771 0.156949,-0.01365 0.553117,-0.0203 0.880372,-0.01493 z m 1.556083,-1.578059 c -0.02632,-0.04259 0.243927,-0.832169 0.330537,-0.965692 0.08321,-0.128289 0.129151,0.05253 0.129855,0.511147 7.37e-4,0.489864 -0.0043,0.498591 -0.285689,0.498591 -0.08112,0 -0.159724,-0.01982 -0.174695,-0.04404 z m -5.106086,1.196467 c 0.340731,-0.365322 0.27175,-0.776448 -0.160586,-0.95709 -0.192806,-0.08055 -0.302859,-0.08028 -0.460353,0.0012 -0.280969,0.145295 -0.402948,0.594636 -0.223387,0.822911 0.118044,0.150075 0.340216,0.25155 0.553353,0.252745 0.138779,7.76e-4 0.203362,-0.02579 0.290973,-0.119725 z M 4.8420338,21.142544 C 5.296004,20.931148 5.6092389,20.394823 5.5480715,19.933655 5.4114149,18.903337 4.1581819,18.48138 3.4763287,19.236111 3.1600925,19.586146 3.0681448,20.024258 3.2183816,20.46518 c 0.2197744,0.645003 0.9969121,0.969214 1.6236522,0.677364 z m 4.6958098,-0.224551 c 0.6610644,-0.268052 0.8324034,-1.181177 0.318133,-1.695447 -0.378395,-0.378396 -0.9853372,-0.400858 -1.3934022,-0.05157 -0.254684,0.218 -0.369083,0.45865 -0.371504,0.781493 -0.0057,0.756613 0.738006,1.252917 1.4467732,0.965524 z m 3.9110734,-0.202005 c 0.25343,-0.238087 0.303454,-0.569978 0.118964,-0.789241 -0.227651,-0.270549 -0.538277,-0.330343 -0.757563,-0.145826 -0.178549,0.150238 -0.2652,0.323932 -0.2652,0.531592 0,0.214594 0.09673,0.350952 0.324103,0.456877 0.217714,0.101419 0.436336,0.08129 0.579703,-0.0534 z m 1.937057,-1.575313 c 0.165378,-0.100844 0.320058,-0.379062 0.320058,-0.575697 0,-0.101964 -0.0441,-0.182722 -0.1668,-0.305418 -0.307454,-0.307454 -0.665294,-0.277169 -0.870922,0.07371 -0.207672,0.354365 -0.127514,0.651695 0.217988,0.808562 0.232741,0.105672 0.324819,0.105457 0.499676,-0.0012 z m 7.657815,-0.385353 c 0.187372,-0.110687 0.369123,-0.498454 0.31769,-0.677794 -0.05534,-0.192952 -0.317996,-0.392387 -0.551068,-0.418422 -0.227978,-0.02546 -0.38635,0.07831 -0.520349,0.340968 -0.162921,0.319351 -0.07741,0.565982 0.257619,0.742969 0.201542,0.106477 0.331218,0.109681 0.496108,0.01221 z m -11.198984,-0.05199 c 0.335784,-0.127585 0.503663,-0.278992 0.658824,-0.594168 0.124252,-0.252385 0.1375,-0.315636 0.121852,-0.58148 -0.04025,-0.683505 -0.541614,-1.173298 -1.199859,-1.172169 -0.816961,0.0014 -1.409598,0.80572 -1.164389,1.58029 0.209561,0.661962 0.935463,1.013792 1.583578,0.767527 z M 7.0282642,18.50798 c 0.52442,-0.256576 0.8311902,-0.730481 0.8560802,-1.322489 0.027151,-0.645774 -0.271371,-1.145765 -0.8558888,-1.433521 -0.4595347,-0.226229 -0.972389,-0.189647 -1.4619197,0.104278 -0.4610348,0.276817 -0.7273383,0.787985 -0.6937461,1.331646 0.040659,0.65804 0.4252167,1.163789 1.0563265,1.389219 0.3254984,0.116262 0.7784304,0.08778 1.0991479,-0.06913 z m 11.1540298,-0.0493 c 0.269144,-0.249434 0.304675,-0.61202 0.08047,-0.821111 -0.16881,-0.157428 -0.287509,-0.210612 -0.470056,-0.210612 -0.204316,0 -0.358305,0.103445 -0.464837,0.31227 -0.118174,0.231636 -0.108316,0.39994 0.03328,0.568215 0.230399,0.273813 0.612878,0.344257 0.82115,0.151238 z m 2.369592,-0.0389 c 0.28951,-0.120961 0.450623,-0.555032 0.297034,-0.800251 -0.09113,-0.145501 -0.407155,-0.32428 -0.573223,-0.32428 -0.253016,0 -0.530709,0.327373 -0.530709,0.625656 0,0.194187 0.137011,0.370749 0.369714,0.476437 0.216528,0.09834 0.251252,0.100125 0.437184,0.02244 z m -5.52458,-1.865233 c 0.475495,-0.222512 0.783552,-0.582758 0.946765,-1.107162 0.256726,-0.824859 -0.154754,-1.749834 -0.943072,-2.119961 -0.356647,-0.167448 -0.686397,-0.21911 -1.02981,-0.16134 -0.628078,0.105658 -1.108987,0.469703 -1.382105,1.046242 -0.128318,0.270877 -0.139828,0.331484 -0.139828,0.736502 0,0.42184 0.0073,0.456112 0.165328,0.775814 0.443224,0.896689 1.47331,1.25547 2.38272,0.829905 z m 9.253992,0.0662 c 0.244883,-0.102323 0.51573,-0.491465 0.579814,-0.83306 0.04715,-0.251337 -0.07607,-0.524865 -0.320529,-0.711526 -0.246803,-0.188448 -0.602714,-0.299685 -0.825271,-0.257934 -0.473149,0.08876 -0.872408,0.872703 -0.656806,1.28963 0.103488,0.200119 0.268114,0.346248 0.527882,0.46856 0.248511,0.117009 0.48487,0.132097 0.69491,0.04433 z M 9.3167996,15.779193 c 0.560429,-0.145974 1.0105784,-0.523918 1.2658404,-1.062798 0.130369,-0.275218 0.14055,-0.330101 0.14055,-0.757679 0,-0.438346 -0.0077,-0.477137 -0.157376,-0.790484 -0.8008464,-1.676826 -3.2180087,-1.344512 -3.5558198,0.488858 -0.065881,0.357545 -0.00856,0.726529 0.1731803,1.114912 0.3802088,0.812489 1.2694759,1.232273 2.1336251,1.007191 z m 12.3506374,-0.01648 c 0.346049,-0.178 0.536528,-0.487309 0.535082,-0.868899 -0.0034,-0.895096 -0.998244,-1.308872 -1.629417,-0.6777 -0.324718,0.32472 -0.386094,0.700887 -0.180563,1.106664 0.16648,0.328682 0.48522,0.523718 0.85589,0.523718 0.165861,0 0.313529,-0.02953 0.419008,-0.08379 z m -2.907366,-0.04311 c 0.452379,-0.20547 0.724546,-0.593021 0.755532,-1.075833 0.02642,-0.411726 -0.08816,-0.694971 -0.391455,-0.967658 -0.623612,-0.560681 -1.558794,-0.381083 -1.949463,0.374387 -0.112598,0.217756 -0.133606,0.641698 -0.045,0.908456 0.09643,0.290318 0.381878,0.610271 0.66001,0.739787 0.280607,0.130674 0.708374,0.139856 0.970381,0.02086 z M 3.2433056,15.69554 C 4.063666,15.521654 4.69336,14.873561 4.8327807,14.059626 c 0.1396296,-0.815153 -0.353839,-1.75082 -1.1119127,-2.1083 -0.6391942,-0.30142 -1.1888281,-0.29753 -1.8298744,0.01295 -0.4534095,0.219602 -0.8965701,0.800023 -1.019991,1.335915 -0.2371981,1.029903 0.4333175,2.103383 1.4853484,2.37801 0.3562327,0.093 0.5153576,0.0961 0.8869546,0.01734 z M 25.895306,13.859939 c 0.938162,-0.476171 0.906091,-1.733804 -0.05697,-2.234422 -0.263099,-0.136763 -0.722341,-0.135917 -1.008313,0.0018 -0.874695,0.421403 -0.997986,1.553955 -0.23271,2.13766 0.21339,0.162762 0.438049,0.233416 0.749314,0.235657 0.217321,0.0016 0.32037,-0.02487 0.548687,-0.140747 z M 13.33534,12.721921 c 1.059847,-0.25196 1.843871,-1.253342 1.843871,-2.355055 0,-0.8043848 -0.399368,-1.5706564 -1.040874,-1.997128 -0.998293,-0.6636646 -2.264424,-0.551617 -3.089328,0.273393 -0.510549,0.5106154 -0.795802,1.2603732 -0.723307,1.901141 0.112884,0.997756 0.69207,1.752689 1.615983,2.106333 0.439048,0.168052 0.889736,0.191115 1.393655,0.07132 z m 9.077539,0.02447 c 0.354149,-0.11438 0.623748,-0.348402 0.800343,-0.694733 0.137198,-0.269071 0.153322,-0.33707 0.150539,-0.634922 -0.0037,-0.395706 -0.116952,-0.673161 -0.38365,-0.939854 -0.539406,-0.5394068 -1.464403,-0.5430628 -1.957847,-0.0077 -0.243318,0.263968 -0.363358,0.522089 -0.388508,0.835403 -0.02727,0.339687 0.07205,0.695077 0.265491,0.950066 0.158942,0.209509 0.49295,0.453214 0.705625,0.514852 0.21963,0.06366 0.570496,0.05364 0.808007,-0.02308 z m -3.62905,-0.252867 c 0.515544,-0.181992 0.862095,-0.487602 1.107493,-0.976656 0.45736,-0.911471 0.05639,-2.0878674 -0.866736,-2.5429049 -0.564226,-0.2781233 -1.1141,-0.2849983 -1.682045,-0.021029 -1.202735,0.5590071 -1.479537,2.1378219 -0.539925,3.0796029 0.398118,0.399038 0.777904,0.558145 1.33996,0.561364 0.25967,0.0014 0.426812,-0.02467 0.641253,-0.100384 z M 6.4336488,11.694574 C 7.4298865,11.491263 8.1929444,10.751583 8.4457134,9.7441542 8.4980304,9.5356422 8.5106704,9.3523867 8.4926484,9.0636778 8.4504134,8.3870535 8.2124594,7.8572603 7.7430854,7.3948134 6.3591814,6.0313348 4.0710995,6.6207613 3.5048863,8.4866047 3.395282,8.8477856 3.384931,9.3757812 3.4795849,9.7772372 c 0.2195798,0.9313048 1.0193982,1.7165698 1.9534495,1.9179048 0.3807201,0.08207 0.596311,0.08194 1.0006144,-5.69e-4 z M 23.489126,8.9129492 C 23.800801,8.7924591 24.20155,8.4336618 24.369868,8.1244065 24.697076,7.5232173 24.654793,6.7865593 24.259549,6.2024597 23.899293,5.6700633 23.161998,5.3632461 22.524954,5.4806257 c -0.793132,0.1461412 -1.364212,0.711309 -1.50538,1.4897957 -0.14941,0.8239533 0.366517,1.6802518 1.198346,1.9889222 0.30952,0.114854 0.910869,0.092908 1.271206,-0.046394 z M 18.495541,8.0093773 C 19.391055,7.7817415 20.04573,7.1630322 20.363432,6.2441047 20.652484,5.4080439 20.385812,4.3314238 19.726332,3.6719405 19.404287,3.3498956 18.896904,3.0642518 18.466833,2.9628732 17.294935,2.6866278 16.051432,3.2736695 15.540738,4.3442449 c -0.291224,0.6104975 -0.345834,1.1088586 -0.188792,1.7228852 0.248956,0.9734106 0.945884,1.6881222 1.890646,1.9388903 0.318874,0.08464 0.926781,0.086268 1.252949,0.00336 z m 5.002954,13.3246797 c -0.02632,-0.04259 0.243926,-0.832169 0.330537,-0.965692 0.08321,-0.128289 0.129152,0.05253 0.129842,0.511147 7.37e-4,0.489864 -0.0043,0.498591 -0.285688,0.498591 -0.08112,0 -0.159726,-0.01982 -0.174697,-0.04404 z"
     style="fill:#00b400" />
</svg>
