<?xml version="1.0" encoding="UTF-8" standalone="no"?>
<svg
   xmlns:dc="http://purl.org/dc/elements/1.1/"
   xmlns:cc="http://creativecommons.org/ns#"
   xmlns:rdf="http://www.w3.org/1999/02/22-rdf-syntax-ns#"
   xmlns:svg="http://www.w3.org/2000/svg"
   xmlns="http://www.w3.org/2000/svg"
   xmlns:sodipodi="http://sodipodi.sourceforge.net/DTD/sodipodi-0.dtd"
   xmlns:inkscape="http://www.inkscape.org/namespaces/inkscape"
   width="499.85049"
   height="500"
   viewBox="0 0 499.8505 500"
   version="1.1"
   id="svg2"
   inkscape:version="0.91 r13725"
   sodipodi:docname="logo-blue.svg">
  <title
     id="title3457">Java Visites</title>
  <sodipodi:namedview
     pagecolor="#ffffff"
     bordercolor="#666666"
     borderopacity="1"
     objecttolerance="10"
     gridtolerance="10"
     guidetolerance="10"
     inkscape:pageopacity="0"
     inkscape:pageshadow="2"
     inkscape:window-width="1366"
     inkscape:window-height="705"
     id="namedview14"
     showgrid="false"
     inkscape:zoom="1.064"
     inkscape:cx="249.92524"
     inkscape:cy="250"
     inkscape:window-x="0"
     inkscape:window-y="30"
     inkscape:window-maximized="1"
     inkscape:current-layer="svg2"
     fit-margin-top="0"
     fit-margin-left="0"
     fit-margin-right="0"
     fit-margin-bottom="0" />
  <metadata
     id="metadata16">
    <rdf:RDF>
      <cc:Work
         rdf:about="">
        <dc:format>image/svg+xml</dc:format>
        <dc:type
           rdf:resource="http://purl.org/dc/dcmitype/StillImage" />
        <dc:title>Java Visites</dc:title>
        <dc:source>https://javavisites.com</dc:source>
        <dc:subject>
          <rdf:Bag>
            <rdf:li>Java Visites</rdf:li>
          </rdf:Bag>
        </dc:subject>
        <cc:license
           rdf:resource="http://creativecommons.org/licenses/by-nc/3.0/" />
      </cc:Work>
      <cc:License
         rdf:about="http://creativecommons.org/licenses/by-nc/3.0/">
        <cc:permits
           rdf:resource="http://creativecommons.org/ns#Reproduction" />
        <cc:permits
           rdf:resource="http://creativecommons.org/ns#Distribution" />
        <cc:requires
           rdf:resource="http://creativecommons.org/ns#Notice" />
        <cc:requires
           rdf:resource="http://creativecommons.org/ns#Attribution" />
        <cc:prohibits
           rdf:resource="http://creativecommons.org/ns#CommercialUse" />
        <cc:permits
           rdf:resource="http://creativecommons.org/ns#DerivativeWorks" />
      </cc:License>
    </rdf:RDF>
  </metadata>
  <!-- Generator: Sketch 3.6.1 (26313) - http://www.bohemiancoding.com/sketch -->
  <desc
     id="desc6">Created with Sketch.</desc>
  <defs
     id="defs8" />
  <path
     inkscape:connector-curvature="0"
     id="path3449"
     d="m 225.64478,497.97916 c -29.8099,-2.76818 -58.34793,-10.66288 -84.2198,-23.29838 -25.3809,-12.39573 -45.067919,-26.64832 -66.727659,-48.30805 -24.32609,-24.3261 -41.334984,-49.07814 -53.623364,-78.03496 -4.81062,-11.33592 -4.80387,-11.17742 -0.58115,-13.6521 4.14138,-2.42702 8.35087,-7.0692 10.57331,-11.66014 8.11374,-16.76075 -3.15501,-36.40421 -22.0815304,-38.49208 l -4.80668,-0.53025 -0.58046,-3.50916 c -1.18844,-7.18475 -1.60795,-41.71564 -0.64549,-53.13137 C 6.7349366,182.49302 21.462357,141.51129 46.211307,106.98566 62.403871,84.39648 85.303861,61.496492 107.89303,45.303933 119.83795,36.74147 145.12718,22.30905 146.23852,23.420377 c 0.21724,0.217248 -0.99072,2.439801 -2.68437,4.939016 -11.88169,17.533096 -14.2845,37.43822 -6.90579,57.208358 6.32064,16.935189 19.59291,29.644069 37.73987,36.137869 6.47549,2.31722 7.37723,2.43592 18.50441,2.43592 13.35228,0 18.71583,-1.22681 29.24299,-6.68877 18.67078,-9.68725 31.41496,-29.263164 32.55826,-50.011647 1.48566,-26.961464 -12.34795,-49.404403 -37.62705,-61.0441884 -4.67382,-2.152065 -4.67634,-2.155067 -2.33944,-2.777233 8.10206,-2.157057 43.42197,-3.022446 60.43551,-1.480756 58.35022,5.287436 107.47148,27.9926504 150.00995,69.3387474 17.81591,17.316533 33.45613,37.594327 44.98072,58.318177 2.5528,4.59053 4.64146,8.598 4.64146,8.9055 0,0.30749 -2.0958,1.49961 -4.65733,2.64916 -5.56542,2.49761 -11.78076,8.70634 -14.16177,14.1467 -5.22577,11.94036 -0.6928,27.11323 10.29161,34.44834 7.05814,4.71324 14.16122,5.70106 25.3937,3.53145 l 2.43966,-0.47124 1.30211,7.08534 c 2.75989,15.01784 3.67414,24.52253 4.10952,42.72362 0.85087,35.57039 -3.54361,64.66731 -14.26406,94.44594 -4.40885,12.24663 -14.12748,32.276 -20.71133,42.68449 -6.86751,10.85695 -7.54382,11.73344 -8.38016,10.86065 -0.39425,-0.41143 -3.381,-9.01621 -6.63723,-19.12173 -3.25622,-10.10552 -6.40749,-19.03981 -7.00282,-19.85396 -1.03518,-1.41571 -1.6163,-1.43959 -13.322,-0.54734 -6.73178,0.51312 -13.14872,1.37634 -14.25987,1.91826 -1.41085,0.68809 -5.99565,7.57181 -15.19897,22.82008 -15.95917,26.4415 -17.64552,29.64746 -16.30248,30.99322 1.12259,1.12485 16.23879,1.81907 21.71807,0.99739 3.25531,-0.48816 3.55005,-0.75037 5.55927,-4.94576 2.07892,-4.34093 2.20002,-4.44069 6.0044,-4.94681 6.47666,-0.86165 11.82243,-0.72574 12.64972,0.32159 0.4235,0.53612 0.96956,2.54157 1.21349,4.45656 0.57516,4.51548 2.01832,5.48605 8.15731,5.48605 l 4.97284,0 -1.78669,2.50918 c -2.36392,3.31983 -22.20094,23.68979 -25.0357,25.70831 -1.98393,1.41269 -2.36173,1.45706 -3.54347,0.41619 -0.72752,-0.6408 -3.51599,-2.2623 -6.1966,-3.60333 -7.3233,-3.66362 -6.53547,-5.28954 2.33177,-4.81226 3.38635,0.18226 3.76416,0.0208 4.50378,-1.92453 1.78908,-4.70564 -0.76593,-6.36648 -8.40931,-5.46632 -10.8682,1.27993 -17.35302,4.52428 -18.54629,9.27867 -0.9798,3.90381 0.20707,5.8842 5.52461,9.21828 4.8687,3.05267 6.01077,4.6367 4.16533,5.77725 -1.3997,0.86505 -6.57277,0.6297 -10.5335,-0.47924 -3.56122,-0.99708 -3.68788,-0.97203 -5.29857,1.04796 -1.63311,2.04812 -1.66046,2.05294 -2.65115,0.46659 -0.92605,-1.48286 -1.62382,-1.5839 -9.31771,-1.34926 -6.91263,0.21081 -8.35332,0.0562 -8.53371,-0.91609 -0.44391,-2.3926 1.144,-3.20516 7.51958,-3.84788 3.53479,-0.35634 6.71186,-0.95228 7.06015,-1.32431 0.34828,-0.37202 0.86127,-1.76097 1.13997,-3.08655 0.73846,-3.51225 -0.53372,-4.17012 -6.79808,-3.51544 -5.70834,0.59658 -6.02135,0.51548 -6.02135,-1.56006 0,-1.66412 1.10992,-2.05249 8.52801,-2.98393 5.84645,-0.73411 7.03499,-1.48304 7.05631,-4.44635 0.0223,-3.10365 -1.31969,-3.34271 -12.07516,-2.151 -5.57566,0.61778 -10.80913,1.39886 -11.62993,1.73573 -1.41457,0.58057 -3.14784,4.65241 -11.41104,26.80707 -3.2842,8.80534 -3.71005,8.59392 16.31703,8.10092 8.84493,-0.21773 16.95899,-0.42694 18.03123,-0.4649 3.3235,-0.11767 8.57794,0.90026 8.57794,1.6618 0,2.63531 -32.14595,19.29341 -48.73831,25.25628 -18.83912,6.7703 -41.37687,11.64858 -62.77495,13.58757 -10.34392,0.93732 -39.22439,0.91134 -49.51813,-0.0445 z m 6.13415,-41.44234 c 2.41872,-2.19643 14.2284,-32.52797 13.45232,-34.55041 -0.45056,-1.17413 -1.23825,-1.27962 -6.14782,-0.82332 -3.09709,0.28784 -6.0567,0.95159 -6.57692,1.47499 -0.52023,0.5234 -2.2033,4.42942 -3.74016,8.68002 -4.14353,11.46006 -4.44911,11.55007 -3.89449,1.14714 0.41941,-7.86658 0.31898,-9.12313 -0.76232,-9.53807 -1.83115,-0.70268 -10.42412,0.34884 -11.2802,1.38035 -0.79788,0.96138 -2.3826,19.46208 -2.38773,27.87535 -0.002,3.4319 0.3281,5.33242 0.97159,5.59208 0.53612,0.21632 4.903,0.42103 9.70418,0.45489 8.00681,0.0564 8.88934,-0.0837 10.66155,-1.69302 z m 26.40046,0.33451 c 0.51651,-0.51651 2.40219,-8.14481 4.19037,-16.95177 3.74204,-18.42975 3.71945,-18.58158 -2.64402,-17.77439 -2.01754,0.25592 -4.2634,1.03656 -4.9908,1.73475 -1.55437,1.49194 -13.8838,29.98326 -13.8838,32.0832 0,0.78876 0.6141,1.61424 1.36467,1.83439 2.57317,0.75478 15.00384,0.0335 15.96358,-0.92618 z m 32.18016,-0.80141 c 4.74133,-2.13793 7.27688,-4.38396 8.68817,-7.69609 2.66323,-6.25035 0.40843,-10.65952 -7.48361,-14.63389 -7.93137,-3.99417 -7.38372,-5.62859 1.72179,-5.13848 3.38635,0.18226 3.76416,0.0208 4.50377,-1.92453 1.78835,-4.7037 -0.76087,-6.36265 -8.4093,-5.47253 -10.17558,1.18424 -16.34618,3.95992 -18.07343,8.12986 -1.82732,4.41155 -0.8993,6.42607 4.63578,10.06321 9.02067,5.92755 5.68212,8.25546 -7.53081,5.2511 -2.93837,-0.66812 -4.26593,0.89347 -5.86441,6.89821 -0.97303,3.65521 -0.94183,3.83563 0.92468,5.34703 1.76977,1.43308 2.81455,1.5376 12.46485,1.24703 8.80516,-0.26513 11.17122,-0.60487 14.42252,-2.07092 z m 25.47248,0.85495 c 0.48708,-0.48708 2.07664,-6.59176 3.53236,-13.56597 1.45574,-6.9742 2.75589,-12.78948 2.88925,-12.92284 0.13336,-0.13335 1.61137,0.0571 3.28447,0.4231 1.99972,0.43753 2.95881,1.0429 2.79919,1.76685 -0.13355,0.6057 -2.1713,6.17966 -4.52833,12.38656 -3.99061,10.50869 -4.19171,11.35388 -2.92235,12.28206 1.88812,1.38063 13.56044,1.33559 15.4686,-0.0597 1.1242,-0.82203 1.83373,-3.60285 3.1976,-12.53218 2.3541,-15.41228 2.2107,-14.97682 5.12397,-15.55947 3.49064,-0.69816 4.56836,-1.84686 4.56836,-4.86926 0,-2.59832 -0.0469,-2.63387 -3.47857,-2.63387 -7.27418,0 -19.52502,1.71816 -20.89059,2.92988 -0.75478,0.66975 -1.36467,0.83329 -1.36467,0.36594 0,-0.46474 -0.54251,-1.38749 -1.20558,-2.05057 -1.52177,-1.52175 -7.91455,-0.87729 -9.86463,0.99448 -1.55437,1.49194 -13.8838,29.98326 -13.8838,32.0832 0,0.78876 0.6141,1.61424 1.36467,1.83439 2.4651,0.72308 15.00197,0.0354 15.91005,-0.87264 z m -119.63521,-17.8031 c 2.20902,-1.42872 4.88475,-6.61328 4.88094,-9.45743 -0.007,-5.16782 -5.33218,-9.58377 -11.5572,-9.58377 -3.82864,0 -7.42112,3.17199 -8.79826,7.76843 -1.1521,3.84539 -0.40633,6.74477 2.41209,9.37756 4.0269,3.76168 9.04978,4.49045 13.06243,1.89521 z M 149.3673,414.57226 c 5.23542,-1.97807 10.26835,-9.24393 10.87846,-15.70482 0.51607,-5.46507 -1.25104,-8.66052 -7.00059,-12.65904 -7.17557,-4.99026 -14.89167,-4.81004 -19.74106,0.46107 -4.49208,4.88273 -6.82115,13.28792 -4.94031,17.82867 1.31792,3.18175 7.13745,8.19963 11.16449,9.62657 3.97904,1.40994 6.75118,1.53865 9.63901,0.44755 z m 126.61696,-6.23413 c 15.25444,0.25038 15.99086,0.0394 18.5559,-5.31663 2.055,-4.29103 2.18427,-4.39695 5.98306,-4.90233 6.47667,-0.86165 11.82244,-0.72574 12.64973,0.32159 0.42349,0.53612 0.96956,2.54157 1.21348,4.45656 0.24894,1.95437 1.0257,3.90752 1.77063,4.45222 1.61407,1.18024 55.34749,1.42675 58.39549,0.2679 1.04747,-0.39824 2.49121,-1.61953 3.20832,-2.71398 2.23784,-3.41537 20.7136,-52.05817 20.24089,-53.29002 -0.66378,-1.72981 -17.16707,-0.71116 -19.78562,1.22125 -1.31995,0.97408 -3.33179,5.47661 -7.20177,16.11764 -2.95359,8.12128 -5.72624,15.12205 -6.16147,15.55727 -1.08486,1.08486 -0.98728,-4.38643 0.31829,-17.84622 1.34503,-13.86658 1.29454,-13.98518 -5.66545,-13.30749 -8.33444,0.81152 -11.49153,1.31511 -12.62106,2.0132 -0.77704,0.48023 -1.42183,5.59878 -2.42255,19.23117 -0.75003,10.21722 -1.38435,19.56249 -1.40959,20.76727 -0.0258,1.23344 -0.38219,1.98266 -0.8156,1.7148 -0.42334,-0.26164 -3.95656,-10.24928 -7.8516,-22.19478 -3.89504,-11.94549 -7.54564,-22.35326 -8.11242,-23.12839 -0.96962,-1.32603 -1.75381,-1.35418 -13.27011,-0.47637 -6.73178,0.51312 -13.14339,1.37634 -14.24802,1.91826 -1.35071,0.66266 -5.06355,6.04807 -11.33781,16.4453 -5.13117,8.50299 -9.59502,15.1704 -9.91966,14.81645 -0.32465,-0.35395 -0.30146,-5.55636 0.0515,-11.56092 1.30651,-22.22394 1.17315,-22.72474 -5.81345,-21.83015 -5.90754,0.75642 -9.53108,1.81567 -10.59449,3.09699 -0.52077,0.62749 -2.30797,7.42326 -3.97155,15.10172 -1.66359,7.67846 -3.37759,14.88899 -3.80889,16.02339 -0.95283,2.50614 -4.01323,3.79583 -7.46899,3.14752 -3.92585,-0.73649 -5.68467,0.22739 -7.67932,4.20846 -2.93776,5.86341 -3.8137,9.19743 -2.87649,10.94861 1.7675,3.30262 14.7244,5.8955 25.01078,5.00503 2.78783,-0.24134 9.82484,-0.36073 15.6378,-0.26532 z m 27.64026,-28.03058 c -0.46766,-0.75667 4.33279,-14.7816 5.87123,-17.15333 1.47821,-2.27886 2.29414,0.93308 2.30644,9.07937 0.0131,8.70129 -0.0757,8.85633 -5.0746,8.85633 -1.44075,0 -2.83713,-0.35206 -3.10307,-0.78237 z m -90.69792,21.25246 c 6.05231,-6.48908 4.82702,-13.7918 -2.85244,-17.00048 -3.42475,-1.43095 -5.37959,-1.42601 -8.17711,0.0207 -4.99078,2.58083 -7.15745,10.56234 -3.96796,14.61712 2.09688,2.66575 6.04315,4.46822 9.82905,4.48944 2.46508,0.0138 3.61226,-0.45823 5.16846,-2.12673 z M 88.427411,376.90576 c 8.06374,-3.75498 13.627639,-13.28157 12.541139,-21.47315 -2.427399,-18.30123 -24.688199,-25.79634 -36.799759,-12.39028 -5.61721,6.21758 -7.25045,13.99965 -4.58184,21.83159 3.90379,11.45701 17.70786,17.21587 28.84046,12.03184 z m 83.410279,-3.98865 c 11.7423,-4.76132 14.78574,-20.98091 5.65092,-30.11573 -6.72132,-6.72132 -17.50226,-7.12032 -24.75059,-0.91602 -4.52388,3.87226 -6.55592,8.14687 -6.59892,13.88145 -0.10077,13.43948 13.10898,22.25518 25.69859,17.1503 z m 69.47124,-3.58816 c 4.50162,-4.22906 5.39019,-10.12436 2.11301,-14.01906 -4.0437,-4.80566 -9.56127,-5.86776 -13.45636,-2.59025 -3.17152,2.66864 -4.7107,5.75392 -4.7107,9.44252 0,3.81177 1.71821,6.23385 5.75697,8.11535 3.86717,1.80155 7.7505,1.44383 10.29708,-0.94856 z m 34.40738,-27.98182 c 2.93758,-1.79113 5.6851,-6.73317 5.6851,-10.22592 0,-1.8112 -0.7834,-3.24564 -2.96283,-5.42507 -5.4612,-5.46121 -11.81742,-4.92327 -15.46992,1.30926 -3.68882,6.2945 -2.26497,11.57587 3.87205,14.36227 4.13414,1.87704 5.76966,1.87325 8.8756,-0.0205 z m 136.02354,-6.84491 c 3.32822,-1.96603 6.55663,-8.85389 5.64303,-12.03947 -0.98296,-3.42733 -5.64848,-6.96983 -9.78846,-7.4323 -4.04952,-0.45237 -6.86263,1.39097 -9.24281,6.05652 -2.89392,5.67254 -1.3749,10.05338 4.57601,13.19715 3.57995,1.89124 5.88333,1.94824 8.81223,0.2181 z m -198.92427,-0.92348 c 5.96442,-2.2663 8.94641,-4.95565 11.70248,-10.55404 2.207,-4.48304 2.44242,-5.60654 2.16433,-10.32865 -0.71502,-12.14093 -9.62055,-20.84096 -21.31274,-20.82091 -14.51145,0.0249 -25.03829,14.31176 -20.6827,28.07024 3.72236,11.75823 16.61635,18.00768 28.12863,13.63336 z m -85.5548,-3.47 c 9.31512,-4.55746 14.76419,-12.97529 15.2063,-23.49096 0.48226,-11.4707 -4.82028,-20.3519 -15.2029,-25.46323 -8.16258,-4.01843 -17.27226,-3.36864 -25.96765,1.85225 -8.189229,4.91699 -12.919499,13.99674 -12.322809,23.65363 0.72222,11.68859 7.553,20.67204 18.763219,24.6763 5.78173,2.06522 13.82703,1.5592 19.52384,-1.22799 z m 198.12575,-0.8758 c 4.78071,-4.43061 5.41186,-10.87111 1.42929,-14.58515 -2.99851,-2.79635 -5.10693,-3.74104 -8.34945,-3.74104 -3.6292,0 -6.36448,1.8375 -8.25679,5.54675 -2.09906,4.11451 -1.92398,7.10402 0.59112,10.09304 4.09251,4.86367 10.88636,6.11495 14.58583,2.6864 z m 42.09037,-0.69093 c 5.14247,-2.14866 8.0043,-9.85885 5.27613,-14.2146 -1.61879,-2.58451 -7.23219,-5.7601 -10.18199,-5.7601 -4.49425,0 -9.42683,5.81504 -9.42683,11.11335 0,3.44928 2.43371,6.58551 6.56712,8.46282 3.84613,1.74683 4.4629,1.77848 7.76557,0.39853 z m -98.1315,-33.13159 c 8.44609,-3.95241 13.91801,-10.35136 16.81711,-19.66619 4.56015,-14.65174 -2.74884,-31.0818 -16.75151,-37.65623 -6.33501,-2.97435 -12.19227,-3.89201 -18.29221,-2.86585 -11.15637,1.87679 -19.69862,8.3432 -24.54994,18.5841 -2.27931,4.8115 -2.48369,5.88803 -2.48369,13.08226 0,7.49301 0.12973,8.10179 2.93668,13.78056 7.87286,15.92762 26.16996,22.30053 42.32356,14.74135 z m 164.37596,1.17582 c 4.34977,-1.81745 9.16075,-8.72976 10.29906,-14.79743 0.83753,-4.46442 -1.35119,-9.32303 -5.69348,-12.63861 -4.38389,-3.34735 -10.70582,-5.32323 -14.65904,-4.58161 -8.40439,1.57668 -15.49632,15.50157 -11.66665,22.90732 1.83818,3.55466 4.76244,6.15029 9.3766,8.32289 4.41426,2.07848 8.61262,2.34631 12.34351,0.78744 z m -265.81,-14.94814 c 9.95474,-2.59288 17.9506,-9.30619 22.48475,-18.87815 2.31569,-4.88863 2.49653,-5.86348 2.49653,-13.45842 0,-7.78623 -0.13719,-8.47528 -2.79542,-14.04115 -14.22518,-29.78497 -57.16053,-23.88217 -63.16097,8.68344 -1.17022,6.35097 -0.15215,12.90513 3.07615,19.80385 6.75354,14.43201 22.54933,21.8885 37.89896,17.89043 z m 219.38074,-0.29283 c 6.14679,-3.16176 9.53018,-8.65591 9.50452,-15.43399 -0.0602,-15.89934 -17.73152,-23.24911 -28.94286,-12.03777 -5.76787,5.76788 -6.85808,12.44964 -3.2073,19.65734 2.95713,5.83826 8.61882,9.30263 15.20292,9.30263 2.94615,0 5.56913,-0.52448 7.44272,-1.48821 z m -51.64269,-0.76577 c 8.03549,-3.64971 12.86991,-10.53365 13.42029,-19.10971 0.46935,-7.31337 -1.56597,-12.34456 -6.95329,-17.18823 -11.07704,-9.95921 -27.6884,-6.76906 -34.62773,6.65013 -2.00018,3.86794 -2.37326,11.39831 -0.79944,16.13664 1.71284,5.15685 6.7832,10.84007 11.72359,13.14062 4.98434,2.32102 12.58262,2.48437 17.23658,0.37055 z M 60.029671,280.15221 c 14.57182,-3.0887 25.75689,-14.60056 28.23338,-29.05826 2.4802,-14.47932 -6.28514,-31.09931 -19.75058,-37.44912 -11.35382,-5.35404 -21.116804,-5.28494 -32.503524,0.23005 -8.05378,3.90073 -15.92551,14.21057 -18.1178,23.72945 -4.21328,18.29388 7.69689,37.3618 26.38381,42.23992 6.327654,1.65179 9.154144,1.70704 15.754714,0.30796 z M 462.3905,247.54695 c 16.6643,-8.45806 16.09464,-30.79703 -1.0121,-39.68937 -4.67333,-2.42928 -12.83072,-2.41425 -17.91037,0.033 -15.53693,7.48526 -17.72692,27.60246 -4.13355,37.97063 3.7904,2.89108 7.78094,4.1461 13.30985,4.18591 3.86019,0.0278 5.69065,-0.44176 9.74617,-2.50016 z M 239.29151,227.33268 c 18.82575,-4.4755 32.75215,-22.26275 32.75215,-41.83214 0,-14.28807 -7.09388,-27.89912 -18.48875,-35.47441 -17.7324,-11.78848 -40.2223,-9.79821 -54.87483,4.8562 -9.06874,9.06991 -14.13559,22.38764 -12.84789,33.76941 2.00512,17.72286 12.29303,31.13251 28.70424,37.41417 7.79866,2.98506 15.80411,3.39472 24.75508,1.26677 z m 161.24167,0.43462 c 6.29064,-2.03165 11.07945,-6.18855 14.21626,-12.34034 2.43704,-4.77942 2.72341,-5.98727 2.67396,-11.27793 -0.0657,-7.0288 -2.07746,-11.95716 -6.81465,-16.69435 -9.58132,-9.58132 -26.01176,-9.64627 -34.77666,-0.13748 -4.32199,4.6888 -6.45422,9.27372 -6.90095,14.83902 -0.48434,6.03377 1.27971,12.34646 4.71582,16.87574 2.82325,3.72144 8.75613,8.05032 12.53381,9.14517 3.90124,1.13067 10.13356,0.95271 14.35241,-0.40983 z m -64.46175,-4.49154 c 9.15745,-3.23267 15.31314,-8.66113 19.67207,-17.34806 8.12395,-16.19019 1.00166,-37.08618 -15.3956,-45.16888 -10.02217,-4.94022 -19.78943,-5.06234 -29.87765,-0.37353 -21.36382,9.92948 -26.28059,37.9735 -9.59054,54.70209 7.07167,7.088 13.81767,9.91417 23.80133,9.97133 4.61244,0.0264 7.58134,-0.43832 11.39039,-1.78295 z M 116.6988,209.08422 c 17.69588,-3.61136 31.24985,-16.75007 35.73972,-34.64474 0.92928,-3.70374 1.1538,-6.95885 0.83369,-12.0871 -0.75021,-12.01868 -4.97692,-21.42924 -13.31427,-29.64355 -24.58188,-24.21907 -65.224409,-13.74926 -75.281889,19.39317 -1.94687,6.41555 -2.13073,15.79418 -0.44942,22.92512 3.90033,16.5425 18.10727,30.49093 34.69855,34.06719 6.762619,1.45769 10.592099,1.45551 17.773619,-0.0101 z m 302.95144,-49.40919 c 5.53619,-2.14023 12.65458,-8.51344 15.64436,-14.00665 5.8121,-10.67875 5.06103,-23.76379 -1.95956,-34.13898 -6.39913,-9.4568 -19.49548,-14.906704 -30.81112,-12.821724 -14.08818,2.595864 -24.2321,12.634774 -26.7396,26.462804 -2.65395,14.63564 6.51033,29.84582 21.28586,35.32864 5.4979,2.04013 16.1795,1.6503 22.58006,-0.82409 z m -88.69958,-16.04988 c 15.90674,-4.04343 27.53555,-15.03338 33.17879,-31.35602 5.13433,-14.850704 0.39758,-33.97439 -11.31663,-45.6886 -5.72039,-5.720389 -14.73288,-10.794195 -22.37211,-12.594955 -20.81608,-4.906864 -42.90406,5.520585 -51.97536,24.536901 -5.17292,10.84409 -6.14295,19.69633 -3.35347,30.603104 4.42214,17.29041 16.80148,29.98562 33.583,34.43994 5.66407,1.50342 16.46214,1.53234 22.25578,0.0597 z m 88.86599,236.6824 c -0.46766,-0.75667 4.33279,-14.7816 5.87123,-17.15333 1.47821,-2.27886 2.29414,0.93308 2.30644,9.07937 0.0131,8.70129 -0.0757,8.85633 -5.0746,8.85633 -1.44075,0 -2.83713,-0.35206 -3.10307,-0.78237 z"
     style="fill:#00b400" />
</svg>
